<?xml version="1.0" standalone="no"?>
<!DOCTYPE svg PUBLIC "-//W3C//DTD SVG 20010904//EN"
 "http://www.w3.org/TR/2001/REC-SVG-20010904/DTD/svg10.dtd">
<svg version="1.0" xmlns="http://www.w3.org/2000/svg"
 width="512.000000pt" height="512.000000pt" viewBox="0 0 512.000000 512.000000"
 preserveAspectRatio="xMidYMid meet">
<metadata>
Created by potrace 1.14, written by Peter Selinger 2001-2017
</metadata>
<g transform="translate(0.000000,512.000000) scale(0.100000,-0.100000)"
fill="#000000" stroke="none">
<path d="M2517 5108 c-13 -10 -108 -206 -222 -463 -7 -16 -30 -66 -50 -110
-100 -218 -154 -343 -159 -367 -3 -19 3 -34 19 -52 23 -24 30 -26 118 -26 67
0 96 -4 99 -12 2 -7 4 -400 3 -873 -1 -794 -2 -865 -19 -925 -22 -80 -59 -136
-114 -173 -37 -25 -52 -29 -115 -29 -96 0 -147 9 -241 43 -208 76 -357 215
-394 369 -22 92 -6 214 65 515 47 199 50 211 59 260 3 17 7 37 9 45 5 26 16
153 17 200 6 243 -106 457 -393 754 -125 129 -131 134 -166 131 -51 -5 -69
-34 -78 -119 -4 -39 -9 -80 -11 -91 -2 -11 -6 -40 -9 -65 -3 -25 -7 -61 -10
-80 -2 -19 -7 -57 -10 -85 -11 -93 -15 -130 -22 -175 -12 -81 -9 -127 11 -149
25 -28 53 -26 153 6 45 15 86 24 90 20 4 -4 8 -47 10 -95 3 -117 -16 -202 -92
-407 -138 -370 -174 -526 -180 -770 -3 -136 5 -217 31 -300 85 -271 323 -480
693 -609 57 -20 112 -38 124 -40 12 -2 60 -13 107 -24 88 -21 150 -31 260 -41
l65 -6 0 -80 c1 -44 -1 -85 -3 -91 -2 -7 -22 -24 -45 -38 -45 -29 -85 -79
-102 -130 -7 -19 -11 -113 -10 -236 1 -170 4 -212 19 -245 21 -48 68 -99 107
-116 16 -6 29 -17 30 -23 1 -6 2 -87 3 -181 1 -110 6 -178 14 -192 26 -47 112
-37 130 15 l8 25 234 2 c129 1 241 0 248 -3 6 -2 12 -10 12 -18 0 -32 54 -59
97 -49 41 9 47 39 49 220 1 94 2 175 3 181 0 6 14 17 30 23 43 18 90 72 110
127 15 42 17 79 16 254 -1 194 -2 207 -24 250 -26 48 -71 93 -111 110 -24 10
-25 14 -25 95 1 47 5 89 10 94 6 5 42 12 81 15 63 6 106 12 219 33 51 9 268
73 302 88 17 8 34 15 37 15 17 0 188 91 254 134 133 88 251 221 310 348 48
105 66 195 66 338 0 267 -35 441 -152 750 -106 281 -130 388 -117 520 l7 68
31 -10 c18 -5 41 -13 52 -18 88 -37 128 -38 161 -5 27 27 26 18 8 165 -2 19
-9 73 -14 120 -6 47 -12 96 -14 110 -3 14 -7 50 -11 80 -3 30 -8 71 -10 90 -2
19 -7 57 -11 85 -3 27 -12 62 -20 77 -15 30 -62 45 -92 29 -33 -18 -257 -256
-326 -347 -80 -108 -159 -264 -180 -359 -11 -51 -14 -107 -11 -205 5 -171 5
-171 76 -460 110 -449 102 -573 -49 -726 -127 -129 -332 -217 -503 -216 -91 0
-135 18 -182 72 -30 35 -58 97 -73 160 -3 14 -7 290 -8 614 l-1 588 -28 24
c-16 13 -33 22 -38 19 -5 -4 -9 39 -9 104 0 98 2 110 19 116 10 3 27 15 37 26
16 18 19 38 19 152 l0 132 103 5 c95 5 105 7 121 29 24 32 19 62 -28 164 -21
45 -64 138 -96 207 -31 69 -63 139 -70 155 -8 17 -57 124 -110 240 -52 115
-103 214 -112 219 -28 16 -67 18 -86 4z"/>
</g>
</svg>
